<svg xmlns="http://www.w3.org/2000/svg" viewBox="0 0 64 64" role="img" aria-label="PolishVerbs">
  <rect width="64" height="64" rx="14" fill="#206a5d"/>
  <path d="M17 16.5c0-2 1.7-3.5 3.7-3.1 4.2.8 8 2.5 11.3 5.2 3.3-2.7 7.1-4.4 11.3-5.2 2-.4 3.7 1.1 3.7 3.1v31.1c0 1.5-1 2.8-2.5 3.1-4.5.8-8.5 2.6-12.5 5.3-4-2.7-8-4.5-12.5-5.3-1.5-.3-2.5-1.6-2.5-3.1V16.5z" fill="#f6fbf9"/>
  <path d="M32 18.6V56" stroke="#206a5d" stroke-width="2.6" stroke-linecap="round"/>
  <path d="M22.5 24.5h5.8M22.5 31.5h5.8M22.5 38.5h5.8M35.7 24.5h5.8M35.7 31.5h5.8M35.7 38.5h5.8" stroke="#206a5d" stroke-width="2.5" stroke-linecap="round"/>
  <path d="M21.5 50.5c3.6.8 7 2.2 10.5 4.5 3.5-2.3 6.9-3.7 10.5-4.5" stroke="#63c6aa" stroke-width="3" stroke-linecap="round"/>
  <path d="M22.2 14.8c3.5.9 6.8 2.5 9.8 4.9 3-2.4 6.3-4 9.8-4.9" stroke="#63c6aa" stroke-width="3" stroke-linecap="round"/>
</svg>
